<?xml version="1.0" encoding="UTF-8"?>
<svg width="16" height="16" version="1.1" viewBox="0 0 16 16" xmlns="http://www.w3.org/2000/svg">
 <path d="m4.6667 3c-1.1111 0-1.1111 1.6667 0 1.6667 3.6819 0 6.6667 2.9848 6.6667 6.6667 0 1.1111 1.6667 1.1111 1.6667 0 0-4.6024-3.731-8.3333-8.3333-8.3333zm0 3.3333c-1.1111 0-1.1111 1.6667 0 1.6667 1.8409 0 3.3333 1.4924 3.3333 3.3333 0 1.1111 1.6667 1.1111 1.6667 0 0-2.7614-2.2386-5-5-5zm0 3.3333c-2.2222 0-2.2222 3.3333 0 3.3333 2.2222 0 2.2222-3.3333 0-3.3333z" fill="#ea9a3b" stroke-width=".83333"/>
</svg>
