<?xml version="1.0" encoding="UTF-8" standalone="no"?>
<svg
   height="16"
   viewBox="0 0 16 16"
   width="16"
   version="1.1"
   id="svg1"
   sodipodi:docname="BTLeafCondition.svg"
   inkscape:version="1.3 (0e150ed6c4, 2023-07-21)"
   xmlns:inkscape="http://www.inkscape.org/namespaces/inkscape"
   xmlns:sodipodi="http://sodipodi.sourceforge.net/DTD/sodipodi-0.dtd"
   xmlns="http://www.w3.org/2000/svg"
   xmlns:svg="http://www.w3.org/2000/svg">
  <defs
     id="defs1" />
  <sodipodi:namedview
     id="namedview1"
     pagecolor="#ffffff"
     bordercolor="#666666"
     borderopacity="1.0"
     inkscape:showpageshadow="2"
     inkscape:pageopacity="0.0"
     inkscape:pagecheckerboard="0"
     inkscape:deskcolor="#d1d1d1"
     inkscape:zoom="45.254834"
     inkscape:cx="4.8061164"
     inkscape:cy="9.9105435"
     inkscape:window-width="1920"
     inkscape:window-height="1017"
     inkscape:window-x="-8"
     inkscape:window-y="-8"
     inkscape:window-maximized="1"
     inkscape:current-layer="g2" />
  <circle
     cx="8"
     cy="8"
     r="5"
     fill="none"
     stroke-width="2"
     stroke="#8da5f3"
     id="circle1"
     style="display:none;stroke:#ea9a3b;stroke-opacity:1" />
  <g
     style="fill:#ea9a3b;fill-opacity:1"
     id="g2"
     transform="matrix(0.88352801,0,0,0.88352801,-2.6023361,-2.5813037)">
    <path
       id="path1-6"
       style="fill:#ea9a3b;fill-opacity:1;stroke-width:1.04348"
       d="M 14.679244 14.664282 L 19.538138 12.234835 C 19.748748 12.127909 19.748751 11.826687 19.538138 11.719766 L 14.683666 9.2903187 A 2.9261768 6.7277055 0 0 1 14.703561 9.4008486 A 2.9261768 6.7277055 0 0 1 14.749984 9.6749627 A 2.9261768 6.7277055 0 0 1 14.789774 9.9534981 A 2.9261768 6.7277055 0 0 1 14.827354 10.234244 A 2.9261768 6.7277055 0 0 1 14.856092 10.519411 A 2.9261768 6.7277055 0 0 1 14.882619 10.808999 A 2.9261768 6.7277055 0 0 1 14.900304 11.098588 A 2.9261768 6.7277055 0 0 1 14.915778 11.390387 A 2.9261768 6.7277055 0 0 1 14.92241 11.682185 A 2.9261768 6.7277055 0 0 1 14.926831 11.976195 A 2.9261768 6.7277055 0 0 1 14.900304 12.853802 A 2.9261768 6.7277055 0 0 1 14.827354 13.718146 A 2.9261768 6.7277055 0 0 1 14.703561 14.551541 A 2.9261768 6.7277055 0 0 1 14.679244 14.664282 z " />
    <path
       id="path6"
       style="fill:#ea9a3b;fill-opacity:1;stroke-width:1.04348"
       d="M 9.3207555 9.2903187 L 4.4640724 11.719766 C 4.2518921 11.825725 4.2518921 12.128876 4.4640724 12.234835 L 9.3207555 14.662071 A 2.9261768 6.7277055 0 0 1 9.296439 14.551541 A 2.9261768 6.7277055 0 0 1 9.1726455 13.718146 A 2.9261768 6.7277055 0 0 1 9.0996958 12.853802 A 2.9261768 6.7277055 0 0 1 9.0731686 11.976195 A 2.9261768 6.7277055 0 0 1 9.0996958 11.098588 A 2.9261768 6.7277055 0 0 1 9.1726455 10.234244 A 2.9261768 6.7277055 0 0 1 9.296439 9.4008486 A 2.9261768 6.7277055 0 0 1 9.3207555 9.2903187 z " />
    <ellipse
       style="fill:none;fill-opacity:1;stroke:#ea9a3b;stroke-width:1.79055;stroke-linecap:round;stroke-dasharray:none;stroke-opacity:1"
       id="path1-4"
       cx="12"
       cy="11.976195"
       rx="2.9261768"
       ry="6.7277055" />
  </g>
</svg>
