<?xml version="1.0" encoding="UTF-8" standalone="no"?>
<svg
   height="16"
   viewBox="0 0 16 16"
   width="16"
   version="1.1"
   id="svg1"
   sodipodi:docname="MainIcon.svg"
   inkscape:version="1.3 (0e150ed6c4, 2023-07-21)"
   xmlns:inkscape="http://www.inkscape.org/namespaces/inkscape"
   xmlns:sodipodi="http://sodipodi.sourceforge.net/DTD/sodipodi-0.dtd"
   xmlns="http://www.w3.org/2000/svg"
   xmlns:svg="http://www.w3.org/2000/svg">
  <defs
     id="defs1" />
  <sodipodi:namedview
     id="namedview1"
     pagecolor="#ffffff"
     bordercolor="#666666"
     borderopacity="1.0"
     inkscape:showpageshadow="2"
     inkscape:pageopacity="0.0"
     inkscape:pagecheckerboard="0"
     inkscape:deskcolor="#d1d1d1"
     inkscape:zoom="36.283417"
     inkscape:cx="4.4924104"
     inkscape:cy="9.2190877"
     inkscape:window-width="1920"
     inkscape:window-height="1017"
     inkscape:window-x="-8"
     inkscape:window-y="-8"
     inkscape:window-maximized="1"
     inkscape:current-layer="svg1"
     showgrid="false" />
  <g
     id="g4"
     transform="matrix(1.0566684,0,0,1.0566684,0.10468797,0.14360526)">
    <path
       d="m 7.4512762,3.5392482 v 0.6970667 a 0.28415139,0.28415139 0 0 1 -0.2265473,0.269145 l -0.5721753,0.098751 a 0.22412623,0.22412623 0 0 1 -0.055181,0.00291 2.8570043,2.8570043 0 0 1 -0.3069034,0.7396645 0.22025364,0.22025364 0 0 1 0.037756,0.040663 L 6.6627213,5.8618435 A 0.28366732,0.28366732 0 0 1 6.6327063,6.2127962 L 6.138951,6.7065489 A 0.28366732,0.28366732 0 0 1 5.7884812,6.7360721 L 5.3140893,6.4020619 a 0.21492882,0.21492882 0 0 1 -0.041146,-0.037756 2.8599086,2.8599086 0 0 1 -0.7474097,0.308356 0.24300511,0.24300511 0 0 1 0,0.084714 L 4.4374316,7.2671067 A 0.3228773,0.3228773 0 0 1 4.131013,7.5246346 H 3.496877 A 0.3228773,0.3228773 0 0 1 3.1904572,7.2671059 L 3.1023561,6.7573777 a 0.2396166,0.2396166 0 0 1 0,-0.084714 2.8599086,2.8599086 0 0 1 -0.7474097,-0.3083559 0.21492882,0.21492882 0 0 1 -0.041147,0.037271 L 1.8394073,6.7360759 A 0.28366732,0.28366732 0 0 1 1.4884529,6.7060635 L 0.99469791,6.2123108 A 0.28366732,0.28366732 0 0 1 0.96517126,5.8623245 L 1.2996661,5.387932 A 0.21976956,0.21976956 0 0 1 1.3369387,5.3467854 2.8565202,2.8565202 0 0 1 1.0305202,4.6071209 0.22557845,0.22557845 0 0 1 0.97533555,4.6042082 L 0.40316012,4.5054598 A 0.28366732,0.28366732 0 0 1 0.17661411,4.2363149 V 3.5392482 A 0.28366732,0.28366732 0 0 1 0.40316012,3.2701032 L 0.97533555,3.1713519 A 0.2115403,0.2115403 0 0 1 1.0305198,3.168943 2.8618449,2.8618449 0 0 1 1.3369386,2.4292795 0.22557845,0.22557845 0 0 1 1.2996661,2.3881336 L 0.96517126,1.9137426 A 0.28415139,0.28415139 0 0 1 0.99469791,1.563273 L 1.4884529,1.0695177 a 0.28415139,0.28415139 0 0 1 0.3509544,-0.030012 l 0.4743926,0.3344948 a 0.21492882,0.21492882 0 0 1 0.041147,0.037759 2.8574884,2.8574884 0 0 1 0.7396645,-0.3069034 0.209604,0.209604 0 0 1 0.00243,-0.055184 L 3.1957892,0.47749513 A 0.28366732,0.28366732 0 0 1 3.4649318,0.25095122 H 4.1629666 A 0.28366732,0.28366732 0 0 1 4.4321115,0.4774973 l 0.098752,0.5721754 a 0.21686511,0.21686511 0 0 1 0.00243,0.055184 2.8599086,2.8599086 0 0 1 0.7396644,0.3069029 0.21492882,0.21492882 0 0 1 0.041145,-0.037759 l 0.474384,-0.3344932 a 0.28366732,0.28366732 0 0 1 0.3504705,0.030012 L 6.6327121,1.563275 a 0.28366732,0.28366732 0 0 1 0.030015,0.3504695 L 6.3282308,2.3881374 a 0.22606253,0.22606253 0 0 1 -0.037756,0.041146 2.8570043,2.8570043 0 0 1 0.3069034,0.7396646 0.21008808,0.21008808 0 0 1 0.055182,0.00241 l 0.5721745,0.09875 A 0.28415139,0.28415139 0 0 1 7.4512812,3.5392531 Z M 5.0526904,3.8877822 A 1.2387451,1.2387451 0 1 0 3.8134612,5.1270115 1.2387451,1.2387451 0 0 0 5.0526904,3.8877822 Z"
       id="path1"
       style="fill:#ea9a3b;fill-opacity:1;stroke-width:0.484071" />
    <path
       d="m 14.214553,6.8144597 0.420498,0.9213758 a 0.41285416,0.41285416 0 0 1 -0.13709,0.4924162 l -0.696726,0.475686 a 0.32564137,0.32564137 0 0 1 -0.07121,0.037105 4.1510481,4.1510481 0 0 1 0.04053,1.1628167 0.32001472,0.32001472 0 0 1 0.07443,0.030977 l 0.72831,0.4252696 a 0.41215082,0.41215082 0 0 1 0.172034,0.481992 l -0.35479,0.950489 a 0.41215082,0.41215082 0 0 1 -0.445441,0.250433 l -0.828513,-0.155284 a 0.3122781,0.3122781 0 0 1 -0.07716,-0.02508 4.1552679,4.1552679 0 0 1 -0.801906,0.858449 0.35307119,0.35307119 0 0 1 0.0511,0.111973 l 0.191036,0.726905 a 0.46912048,0.46912048 0 0 1 -0.249669,0.525242 l -0.8382,0.382537 A 0.46912048,0.46912048 0 0 1 10.831423,14.312205 L 10.40748,13.691597 a 0.34814789,0.34814789 0 0 1 -0.0511,-0.111971 4.1552679,4.1552679 0 0 1 -1.1739313,0.04328 0.3122781,0.3122781 0 0 1 -0.031904,0.07408 L 8.7252867,14.42529 A 0.41215082,0.41215082 0 0 1 8.2432973,14.597334 L 7.2928055,14.242548 A 0.41215082,0.41215082 0 0 1 7.0426514,13.79775 l 0.1559602,-0.828827 a 0.31931138,0.31931138 0 0 1 0.024444,-0.07687 4.1503447,4.1503447 0 0 1 -0.8512155,-0.792838 0.32775135,0.32775135 0 0 1 -0.074684,0.02948 L 5.4812777,12.343288 A 0.41215082,0.41215082 0 0 1 5.0194724,12.124195 L 4.5989747,11.202819 a 0.41215082,0.41215082 0 0 1 0.1370875,-0.492414 l 0.6967254,-0.475687 a 0.30735479,0.30735479 0 0 1 0.07149,-0.03647 4.1580812,4.1580812 0 0 1 -0.041173,-1.1625233 0.32775135,0.32775135 0 0 1 -0.074088,-0.031904 L 4.6607136,8.5785534 A 0.41285416,0.41285416 0 0 1 4.488325,8.0974945 L 4.8431129,7.1470012 A 0.41285416,0.41285416 0 0 1 5.2888965,6.8956223 l 0.8288279,0.1559599 a 0.3122781,0.3122781 0 0 1 0.077164,0.025089 4.1517515,4.1517515 0 0 1 0.792545,-0.8518561 0.30454148,0.30454148 0 0 1 -0.030116,-0.07439 L 6.7427103,5.3345457 A 0.41215082,0.41215082 0 0 1 6.9618009,4.8727447 L 7.8844575,4.4516625 A 0.41215082,0.41215082 0 0 1 8.3768701,4.588751 l 0.4756884,0.6967247 a 0.31509141,0.31509141 0 0 1 0.036455,0.071498 4.1552679,4.1552679 0 0 1 1.1628155,-0.040533 0.3122781,0.3122781 0 0 1 0.03162,-0.074736 L 10.50873,4.5133965 a 0.41215082,0.41215082 0 0 1 0.481352,-0.1717478 l 0.950494,0.3547888 a 0.41215082,0.41215082 0 0 1 0.25109,0.445141 l -0.15596,0.8288287 a 0.32845468,0.32845468 0 0 1 -0.02508,0.077159 4.1510481,4.1510481 0 0 1 0.851857,0.7925458 0.30524482,0.30524482 0 0 1 0.07439,-0.030108 l 0.815869,-0.2146286 a 0.41285416,0.41285416 0 0 1 0.461805,0.2190916 z m -2.960179,1.9076101 a 1.7998189,1.7998189 0 1 0 -0.890449,2.3855522 1.7998189,1.7998189 0 0 0 0.890449,-2.3855522 z"
       id="path2"
       style="fill:#ea9a3b;fill-opacity:1;stroke-width:0.703326" />
  </g>
</svg>
