<?xml version="1.0" encoding="UTF-8" standalone="no"?>
<svg
   height="16"
   viewBox="0 0 16 16"
   width="16"
   version="1.1"
   id="svg1"
   sodipodi:docname="Blackboard.svg"
   inkscape:version="1.3 (0e150ed6c4, 2023-07-21)"
   xml:space="preserve"
   xmlns:inkscape="http://www.inkscape.org/namespaces/inkscape"
   xmlns:sodipodi="http://sodipodi.sourceforge.net/DTD/sodipodi-0.dtd"
   xmlns="http://www.w3.org/2000/svg"
   xmlns:svg="http://www.w3.org/2000/svg"><defs
     id="defs1" /><sodipodi:namedview
     id="namedview1"
     pagecolor="#ffffff"
     bordercolor="#666666"
     borderopacity="1.0"
     inkscape:showpageshadow="2"
     inkscape:pageopacity="0.0"
     inkscape:pagecheckerboard="0"
     inkscape:deskcolor="#d1d1d1"
     inkscape:zoom="36.283417"
     inkscape:cx="11.561756"
     inkscape:cy="5.305454"
     inkscape:window-width="1920"
     inkscape:window-height="1017"
     inkscape:window-x="-8"
     inkscape:window-y="-8"
     inkscape:window-maximized="1"
     inkscape:current-layer="svg1" /><circle
     cx="8"
     cy="8"
     r="5"
     fill="none"
     stroke-width="2"
     stroke="#8da5f3"
     id="circle1"
     style="display:none;stroke:#ea9a3b;stroke-opacity:1" /><path
     d="m 7.4858891,6.4605609 6.812e-4,7.8666771 -3.5906461,4.64e-4 c -1.1852974,0 -2.153931,-0.927641 -2.2193243,-2.096597 l -0.00352,-0.126136 V 6.4605745 Z M 8.5117996,10.5642 h 5.8141724 l 5.57e-4,1.540743 c -1.13e-4,1.227555 -0.995283,2.222745 -2.222876,2.222745 L 8.5124877,14.327224 Z M 12.104092,1.6722984 c 1.185299,0 2.153931,0.9276612 2.219324,2.096616 l 0.0035,0.1261369 -8.54e-4,5.6432393 H 8.5118254 l 6.811e-4,-7.8659922 z m -4.6175192,0 -6.813e-4,3.7623531 H 1.6730874 l 4.645e-4,-1.53959 C 1.6736646,2.6675068 2.6688347,1.6722984 3.8963896,1.6722984 Z"
     id="🎨-Color"
     style="fill:#ea9a3b;fill-opacity:1;fill-rule:nonzero;stroke:none;stroke-width:0.683939" /></svg>
