<?xml version="1.0" encoding="UTF-8" standalone="no"?>
<svg
   height="16"
   viewBox="0 0 16 16"
   width="16"
   version="1.1"
   id="svg1"
   sodipodi:docname="BTCompositeIntegration.svg"
   inkscape:version="1.3 (0e150ed6c4, 2023-07-21)"
   xml:space="preserve"
   xmlns:inkscape="http://www.inkscape.org/namespaces/inkscape"
   xmlns:sodipodi="http://sodipodi.sourceforge.net/DTD/sodipodi-0.dtd"
   xmlns="http://www.w3.org/2000/svg"
   xmlns:svg="http://www.w3.org/2000/svg"><defs
     id="defs1" /><sodipodi:namedview
     id="namedview1"
     pagecolor="#ffffff"
     bordercolor="#666666"
     borderopacity="1.0"
     inkscape:showpageshadow="2"
     inkscape:pageopacity="0.0"
     inkscape:pagecheckerboard="0"
     inkscape:deskcolor="#d1d1d1"
     inkscape:zoom="32"
     inkscape:cx="10.640625"
     inkscape:cy="6.984375"
     inkscape:window-width="1920"
     inkscape:window-height="1017"
     inkscape:window-x="-8"
     inkscape:window-y="-8"
     inkscape:window-maximized="1"
     inkscape:current-layer="g1" /><circle
     cx="8"
     cy="8"
     r="5"
     fill="none"
     stroke-width="2"
     stroke="#8da5f3"
     id="circle1"
     style="display:none;stroke:#ea9a3b;stroke-opacity:1" /><circle
     cx="8"
     cy="8"
     r="1.5408041"
     fill="none"
     stroke-width="0.616323"
     stroke="#8da5f3"
     id="circle2"
     style="display:none;fill:#ea9a3b;fill-opacity:1;stroke:#ea9a3b;stroke-opacity:1" /><g
     style="fill:#ea9a3b;fill-opacity:1"
     id="g1"
     transform="matrix(0.88352801,0,0,0.88352801,-2.6023361,-2.5813037)"><g
       id="g5"
       transform="translate(0,1.8720038)"><path
         d="m 11.722028,4.0055615 c 0.175427,-0.087535 0.381793,-0.087535 0.557219,0 l 7.897068,3.948534 c 0.228443,0.1159784 0.228443,0.4422843 0,0.5582626 l -7.897068,3.9474909 c -0.175426,0.08753 -0.381792,0.08753 -0.557219,0 L 3.8249606,8.5123581 c -0.2301443,-0.1149295 -0.2301443,-0.443333 0,-0.5582626 z"
         id="path1-0"
         style="display:inline;fill:#ea9a3b;fill-opacity:1;stroke-width:1.04348"
         sodipodi:nodetypes="ccccccccc"
         inkscape:label="path1-0" /><path
         d="m 18.385804,10.801757 1.78957,0.895307 c 0.229566,0.114783 0.229566,0.442436 0,0.557219 l -7.897068,3.948534 c -0.175426,0.08754 -0.381792,0.08754 -0.557219,0 L 3.8240196,12.254283 c -0.2287578,-0.115305 -0.2287578,-0.441914 0,-0.557219 l 1.7906143,-0.895307 5.5481911,2.774617 c 0.526958,0.262957 1.147829,0.262957 1.673744,0 l 5.548191,-2.774617 z"
         id="path2-1"
         style="display:inline;fill:#3ba5ea;fill-opacity:1;stroke-width:1.04348"
         sodipodi:nodetypes="ccsccccccccc" /></g></g></svg>
