<?xml version="1.0" encoding="UTF-8" standalone="no"?>
<svg
   height="16"
   viewBox="0 0 16 16"
   width="16"
   version="1.1"
   id="svg1"
   sodipodi:docname="BTCompositeRandomSelector.svg"
   inkscape:version="1.3 (0e150ed6c4, 2023-07-21)"
   xml:space="preserve"
   xmlns:inkscape="http://www.inkscape.org/namespaces/inkscape"
   xmlns:sodipodi="http://sodipodi.sourceforge.net/DTD/sodipodi-0.dtd"
   xmlns="http://www.w3.org/2000/svg"
   xmlns:svg="http://www.w3.org/2000/svg"><defs
     id="defs1" /><sodipodi:namedview
     id="namedview1"
     pagecolor="#ffffff"
     bordercolor="#666666"
     borderopacity="1.0"
     inkscape:showpageshadow="2"
     inkscape:pageopacity="0.0"
     inkscape:pagecheckerboard="0"
     inkscape:deskcolor="#d1d1d1"
     inkscape:zoom="36.283417"
     inkscape:cx="10.762492"
     inkscape:cy="7.4276356"
     inkscape:window-width="1920"
     inkscape:window-height="1017"
     inkscape:window-x="-8"
     inkscape:window-y="-8"
     inkscape:window-maximized="1"
     inkscape:current-layer="g2" /><circle
     cx="8"
     cy="8"
     r="5"
     fill="none"
     stroke-width="2"
     stroke="#8da5f3"
     id="circle1"
     style="display:none;stroke:#ea9a3b;stroke-opacity:1" /><circle
     cx="8"
     cy="8"
     r="1.5408041"
     fill="none"
     stroke-width="0.616323"
     stroke="#8da5f3"
     id="circle2"
     style="display:none;fill:#ea9a3b;fill-opacity:1;stroke:#ea9a3b;stroke-opacity:1" /><g
     style="fill:#ea9a3b;fill-opacity:1"
     id="g1"
     transform="matrix(0.88352801,0,0,0.88352801,-2.6023361,-2.5813037)"><g
       style="fill:#ea9a3b;fill-opacity:1"
       id="g2"
       transform="matrix(1.0434815,0,0,1.0434815,3.6523649,3.9398222)"><path
         d="m 7.733,0.063 c 0.1681163,-0.08388786 0.3658837,-0.08388786 0.534,0 l 7.568,3.784 c 0.218923,0.1111456 0.218923,0.4238544 0,0.535 L 8.267,8.165 c -0.1681163,0.083888 -0.3658837,0.083888 -0.534,0 L 0.165,4.382 c -0.22055434,-0.1101405 -0.22055434,-0.4248595 0,-0.535 z"
         id="path1-0"
         style="fill:#ea9a3b;fill-opacity:1"
         sodipodi:nodetypes="ccccccccc" /><path
         d="m 14.12,6.576 1.715,0.858 c 0.22,0.11 0.22,0.424 0,0.534 l -7.568,3.784 c -0.1681163,0.08389 -0.3658837,0.08389 -0.534,0 L 0.165,7.968 c -0.21922556,-0.1105002 -0.21922556,-0.4234998 0,-0.534 L 1.881,6.576 7.198,9.235 c 0.505,0.252 1.1,0.252 1.604,0 l 5.317,-2.659 z"
         id="path2-1"
         style="fill:#c122e7;fill-opacity:1"
         sodipodi:nodetypes="ccsccccccccc" /><path
         d="m 14.12,10.163 1.715,0.858 c 0.22,0.11 0.22,0.424 0,0.534 L 8.267,15.34 c -0.1681163,0.08389 -0.3658837,0.08389 -0.534,0 L 0.165,11.555 c -0.21922556,-0.1105 -0.21922556,-0.4235 0,-0.534 l 1.716,-0.858 5.317,2.659 c 0.505,0.252 1.1,0.252 1.604,0 l 5.317,-2.66 z"
         id="path1"
         style="fill:#ea3b3b;fill-opacity:1"
         sodipodi:nodetypes="cccccccccccc" /></g></g></svg>
