<?xml version="1.0" encoding="UTF-8" standalone="no"?>
<svg
   height="16"
   viewBox="0 0 16 16"
   width="16"
   version="1.1"
   id="svg1"
   sodipodi:docname="BTDecoratorRepeat.svg"
   inkscape:version="1.3 (0e150ed6c4, 2023-07-21)"
   xmlns:inkscape="http://www.inkscape.org/namespaces/inkscape"
   xmlns:sodipodi="http://sodipodi.sourceforge.net/DTD/sodipodi-0.dtd"
   xmlns="http://www.w3.org/2000/svg"
   xmlns:svg="http://www.w3.org/2000/svg">
  <defs
     id="defs1" />
  <sodipodi:namedview
     id="namedview1"
     pagecolor="#ffffff"
     bordercolor="#666666"
     borderopacity="1.0"
     inkscape:showpageshadow="2"
     inkscape:pageopacity="0.0"
     inkscape:pagecheckerboard="0"
     inkscape:deskcolor="#d1d1d1"
     inkscape:zoom="25.65625"
     inkscape:cx="6.5286236"
     inkscape:cy="8.9062119"
     inkscape:window-width="1920"
     inkscape:window-height="1017"
     inkscape:window-x="-8"
     inkscape:window-y="-8"
     inkscape:window-maximized="1"
     inkscape:current-layer="svg1" />
  <rect
     style="display:none;fill:none;stroke:#ea9a3b;stroke-width:1.91343;stroke-dasharray:none;stroke-opacity:1"
     id="rect1"
     width="11.849584"
     height="11.849584"
     x="2.0752082"
     y="2.0752082"
     ry="2.5273657" />
  <g
     id="g3"
     transform="translate(0,0.098807)">
    <path
       d="m 7.7730958,4.4579133 c 0.142896,-0.071303 0.3109951,-0.071303 0.4538911,0 l 6.4326711,3.2163351 c 0.186081,0.094472 0.186081,0.3602689 0,0.4547407 L 8.2269869,11.344474 c -0.142896,0.0713 -0.3109951,0.0713 -0.4538911,0 l -6.43267,-3.2154849 c -0.1874674,-0.093618 -0.1874674,-0.3611232 0,-0.4547407 z"
       style="fill:none;fill-opacity:1;stroke:#ea9a3b;stroke-width:1.422;stroke-dasharray:none;stroke-opacity:1"
       id="path1"
       sodipodi:nodetypes="ccccccccc" />
    <path
       d="m 7.7730933,7.9560862 c 0.142896,-0.071303 0.3109951,-0.071303 0.4538911,0 l 6.4326706,3.2163348 c 0.186081,0.09447 0.186081,0.360269 0,0.454741 l -6.4326706,3.215485 c -0.142896,0.0713 -0.3109951,0.0713 -0.4538911,0 l -6.43267,-3.215485 c -0.1874674,-0.09362 -0.1874674,-0.361123 0,-0.454741 z"
       style="fill:none;fill-opacity:1;stroke:#ea9a3b;stroke-width:1.422;stroke-dasharray:none;stroke-opacity:1"
       id="path2"
       sodipodi:nodetypes="ccccccccc" />
    <path
       d="m 7.7730958,0.95974031 c 0.142896,-0.071303 0.3109951,-0.071303 0.4538911,0 L 14.659658,4.1760754 c 0.186081,0.094472 0.186081,0.3602689 0,0.4547407 L 8.2269869,7.8463014 c -0.142896,0.0713 -0.3109951,0.0713 -0.4538911,0 l -6.43267,-3.2154853 c -0.1874674,-0.093618 -0.1874674,-0.3611232 0,-0.4547407 z"
       style="fill:none;fill-opacity:1;stroke:#ea9a3b;stroke-width:1.422;stroke-dasharray:none;stroke-opacity:1"
       id="path3"
       sodipodi:nodetypes="ccccccccc" />
  </g>
</svg>
