<?xml version="1.0" encoding="UTF-8" standalone="no"?>
<svg
   height="16"
   viewBox="0 0 16 16"
   width="16"
   version="1.1"
   id="svg1"
   sodipodi:docname="BTDecoratorFail.svg"
   inkscape:version="1.3 (0e150ed6c4, 2023-07-21)"
   xmlns:inkscape="http://www.inkscape.org/namespaces/inkscape"
   xmlns:sodipodi="http://sodipodi.sourceforge.net/DTD/sodipodi-0.dtd"
   xmlns="http://www.w3.org/2000/svg"
   xmlns:svg="http://www.w3.org/2000/svg">
  <defs
     id="defs1" />
  <sodipodi:namedview
     id="namedview1"
     pagecolor="#ffffff"
     bordercolor="#666666"
     borderopacity="1.0"
     inkscape:showpageshadow="2"
     inkscape:pageopacity="0.0"
     inkscape:pagecheckerboard="0"
     inkscape:deskcolor="#d1d1d1"
     inkscape:zoom="51.3125"
     inkscape:cx="8.0292326"
     inkscape:cy="8.4482339"
     inkscape:window-width="1920"
     inkscape:window-height="1017"
     inkscape:window-x="-8"
     inkscape:window-y="-8"
     inkscape:window-maximized="1"
     inkscape:current-layer="svg1" />
  <rect
     style="display:none;fill:none;stroke:#ea9a3b;stroke-width:1.91343;stroke-dasharray:none;stroke-opacity:1"
     id="rect1"
     width="11.849584"
     height="11.849584"
     x="2.0752082"
     y="2.0752082"
     ry="2.5273657" />
  <path
     d="m 7.7732641,3.1229559 c 0.142896,-0.071303 0.3109951,-0.071303 0.4538911,0 L 14.659826,6.339291 c 0.186081,0.094472 0.186081,0.3602689 0,0.4547407 L 8.2271552,10.009517 c -0.142896,0.0713 -0.3109951,0.0713 -0.4538911,0 l -6.43267,-3.2154853 c -0.1874674,-0.093618 -0.1874674,-0.3611232 0,-0.4547407 z"
     style="fill:none;fill-opacity:1;stroke:#ea3b3b;stroke-width:1.422;stroke-opacity:1;stroke-dasharray:none"
     id="path1" />
  <path
     d="m 13.201648,8.9383737 1.457721,0.729285 c 0.186996,0.0935 0.186996,0.3603933 0,0.4538913 l -6.4326707,3.216335 c -0.1428959,0.0713 -0.3109948,0.0713 -0.4538908,0 l -6.43267,-3.216335 c -0.186338,-0.09392 -0.186338,-0.3599673 0,-0.4538913 L 2.798708,8.9383737 7.3180667,11.198478 c 0.4292414,0.214196 0.9349811,0.214196 1.3633725,0 L 13.200798,8.9383737 Z"
     style="fill:#ea9a3b;fill-opacity:1;stroke-width:0.921945"
     id="path1-0" />
</svg>
