<?xml version="1.0" encoding="UTF-8" standalone="no"?>
<svg
   width="16"
   height="16"
   version="1.1"
   viewBox="0 0 16 16"
   id="svg1"
   sodipodi:docname="BTLeafSignal.svg"
   inkscape:version="1.3 (0e150ed6c4, 2023-07-21)"
   xmlns:inkscape="http://www.inkscape.org/namespaces/inkscape"
   xmlns:sodipodi="http://sodipodi.sourceforge.net/DTD/sodipodi-0.dtd"
   xmlns="http://www.w3.org/2000/svg"
   xmlns:svg="http://www.w3.org/2000/svg">
  <defs
     id="defs1" />
  <sodipodi:namedview
     id="namedview1"
     pagecolor="#505050"
     bordercolor="#eeeeee"
     borderopacity="1"
     inkscape:showpageshadow="0"
     inkscape:pageopacity="0"
     inkscape:pagecheckerboard="0"
     inkscape:deskcolor="#505050"
     inkscape:zoom="51.3125"
     inkscape:cx="8"
     inkscape:cy="8"
     inkscape:window-width="1920"
     inkscape:window-height="1017"
     inkscape:window-x="-8"
     inkscape:window-y="-8"
     inkscape:window-maximized="1"
     inkscape:current-layer="svg1" />
  <path
     d="m 5.0888841,3.6334242 c -0.9703502,0 -0.9703502,1.4555688 0,1.4555688 3.2154913,0 5.8221879,2.6066972 5.8221879,5.822189 0,0.970351 1.455569,0.970351 1.455569,0 0,-4.0193866 -3.2583709,-7.2776704 -7.2776694,-7.2776704 z m 0,2.9110505 c -0.9703502,0 -0.9703502,1.455569 0,1.455569 1.607702,0 2.9110506,1.3033485 2.9110506,2.9110513 0,0.97035 1.4555697,0.97035 1.4555697,0 0,-2.4115973 -1.9550235,-4.3666202 -4.3666203,-4.3666203 z m 0,2.9110508 c -1.9407003,0 -1.9407003,2.9110505 0,2.9110505 1.9407004,0 1.9407004,-2.9110505 0,-2.9110505 z"
     fill="#ea9a3b"
     stroke-width="0.727767"
     id="path1" />
</svg>
