<?xml version="1.0" encoding="UTF-8" standalone="no"?>
<svg
   height="16"
   viewBox="0 0 16 16"
   width="16"
   version="1.1"
   id="svg1"
   sodipodi:docname="BTRoot.svg"
   inkscape:version="1.3 (0e150ed6c4, 2023-07-21)"
   xmlns:inkscape="http://www.inkscape.org/namespaces/inkscape"
   xmlns:sodipodi="http://sodipodi.sourceforge.net/DTD/sodipodi-0.dtd"
   xmlns="http://www.w3.org/2000/svg"
   xmlns:svg="http://www.w3.org/2000/svg">
  <defs
     id="defs1" />
  <sodipodi:namedview
     id="namedview1"
     pagecolor="#ffffff"
     bordercolor="#666666"
     borderopacity="1.0"
     inkscape:showpageshadow="2"
     inkscape:pageopacity="0.0"
     inkscape:pagecheckerboard="0"
     inkscape:deskcolor="#d1d1d1"
     inkscape:zoom="36.283417"
     inkscape:cx="6.54569"
     inkscape:cy="6.7661764"
     inkscape:window-width="1920"
     inkscape:window-height="1129"
     inkscape:window-x="1912"
     inkscape:window-y="-8"
     inkscape:window-maximized="1"
     inkscape:current-layer="svg1" />
  <g
     id="Layer_2"
     data-name="Layer 2"
     transform="matrix(0.31794552,0,0,0.31794552,0.36930752,0.36930752)"
     style="stroke-width:0.6542;stroke-dasharray:none">
    <g
       id="icons_Q2"
       data-name="icons Q2"
       style="stroke-width:0.6542;stroke-dasharray:none;stroke:none;stroke-opacity:1">
      <g
         id="g2"
         style="stroke-width:0.6542;stroke-dasharray:none;stroke:none;stroke-opacity:1">
        <rect
           width="48"
           height="48"
           fill="none"
           id="rect1"
           x="0"
           y="0"
           style="stroke-width:0.6542;stroke-dasharray:none;stroke:none;stroke-opacity:1" />
        <path
           d="m 26,30 h 16 a 2,2 0 0 0 2,-2 V 20 A 2,2 0 0 0 42,18 H 26 a 2,2 0 0 0 -2,2 v 2 h -8 v -8 h 6 a 2,2 0 0 0 2,-2 V 4 A 2,2 0 0 0 22,2 H 6 A 2,2 0 0 0 4,4 v 8 a 2,2 0 0 0 2,2 h 6 v 26 a 2,2 0 0 0 2,2 h 10 v 2 a 2,2 0 0 0 2,2 h 16 a 2,2 0 0 0 2,-2 V 36 A 2,2 0 0 0 42,34 H 26 a 2,2 0 0 0 -2,2 v 2 H 16 V 26 h 8 v 2 a 2,2 0 0 0 2,2 z"
           id="path1"
           style="stroke-width:0.6542;stroke-dasharray:none;stroke:none;stroke-opacity:1;fill:#ea9a3b;fill-opacity:1" />
      </g>
    </g>
  </g>
</svg>
