<?xml version="1.0" encoding="UTF-8" standalone="no"?>
<svg
   height="16"
   viewBox="0 0 16 16"
   width="16"
   version="1.1"
   id="svg1"
   sodipodi:docname="FiniteStateMachine.svg"
   inkscape:version="1.3 (0e150ed6c4, 2023-07-21)"
   xml:space="preserve"
   xmlns:inkscape="http://www.inkscape.org/namespaces/inkscape"
   xmlns:sodipodi="http://sodipodi.sourceforge.net/DTD/sodipodi-0.dtd"
   xmlns="http://www.w3.org/2000/svg"
   xmlns:svg="http://www.w3.org/2000/svg"><defs
     id="defs1" /><sodipodi:namedview
     id="namedview1"
     pagecolor="#ffffff"
     bordercolor="#666666"
     borderopacity="1.0"
     inkscape:showpageshadow="2"
     inkscape:pageopacity="0.0"
     inkscape:pagecheckerboard="0"
     inkscape:deskcolor="#d1d1d1"
     inkscape:zoom="51.3125"
     inkscape:cx="7.7271619"
     inkscape:cy="7.6686967"
     inkscape:window-width="1920"
     inkscape:window-height="1017"
     inkscape:window-x="-8"
     inkscape:window-y="-8"
     inkscape:window-maximized="1"
     inkscape:current-layer="svg1" /><path
     sodipodi:type="star"
     style="display:none;fill:#ea9a3b;fill-opacity:1;stroke:#8da5f3;stroke-width:0;stroke-linecap:round;stroke-dasharray:none;paint-order:stroke markers fill"
     id="path24"
     inkscape:flatsided="false"
     sodipodi:sides="5"
     sodipodi:cx="5.2089911"
     sodipodi:cy="5.3743558"
     sodipodi:r1="5.1831894"
     sodipodi:r2="2.5915947"
     sodipodi:arg1="0.99754192"
     sodipodi:arg2="1.6258604"
     inkscape:rounded="0"
     inkscape:randomized="0"
     d="M 8.0201927,9.7289623 5.0663594,7.9620226 1.9362233,9.3936148 2.7038981,6.038338 0.37510768,3.503788 3.8033901,3.1970526 5.4942546,0.19902228 6.8453748,3.3647262 10.219177,4.0463916 7.6259328,6.3096396 Z"
     inkscape:transform-center-x="-0.088151286"
     inkscape:transform-center-y="-0.41036351" /><path
     sodipodi:type="star"
     style="display:none;fill:#ea9a3b;fill-opacity:1;stroke:#8da5f3;stroke-width:0;stroke-linecap:round;stroke-dasharray:none;paint-order:stroke markers fill"
     id="path25"
     inkscape:flatsided="false"
     sodipodi:sides="5"
     sodipodi:cx="12.016509"
     sodipodi:cy="8.26824"
     sodipodi:r1="4.0289702"
     sodipodi:r2="2.0144851"
     sodipodi:arg1="0.99986986"
     sodipodi:arg2="1.6281884"
     inkscape:rounded="0"
     inkscape:randomized="0"
     d="M 14.193812,11.658218 11.900957,10.279408 9.4652718,11.386539 10.068067,8.7798287 8.2624546,6.8054766 10.927858,6.5732508 l 1.319755,-2.3273475 1.044515,2.4631871 2.621266,0.5359722 -2.019858,1.7545591 z"
     inkscape:transform-center-x="-0.071415069"
     inkscape:transform-center-y="-0.31617922" /><path
     sodipodi:type="star"
     style="display:none;fill:#ea9a3b;fill-opacity:1;stroke:#8da5f3;stroke-width:0;stroke-linecap:round;stroke-dasharray:none;paint-order:stroke markers fill"
     id="path26"
     inkscape:flatsided="false"
     sodipodi:sides="5"
     sodipodi:cx="5.5672817"
     sodipodi:cy="12.981137"
     sodipodi:r1="2.9828122"
     sodipodi:r2="1.491406"
     sodipodi:arg1="0.94947273"
     sodipodi:arg2="1.5777913"
     inkscape:rounded="0"
     inkscape:randomized="0"
     d="M 7.3036122,15.406488 5.5568495,14.472507 3.797192,15.38196 4.1456813,13.432074 2.7369756,12.039577 4.6991166,11.768462 5.5881461,9.9983981 6.4523266,11.780726 8.4104827,12.079263 6.9824346,13.451917 Z"
     inkscape:transform-center-x="-0.0064474527"
     inkscape:transform-center-y="-0.27869435" /><g
     style="fill:#ea9a3b;fill-opacity:1"
     id="g1"
     transform="matrix(0.72678021,0,0,0.70931261,-0.7213514,-0.51175501)"><path
       d="M 2,5 A 3,3 0 1 1 5.965,7.827 0.915,0.915 0 0 1 6,8 v 5 A 1,1 0 0 1 4,13 V 8 A 0.915,0.915 0 0 1 4.035,7.827 2.989,2.989 0 0 1 2,5 Z M 19.965,16.173 A 0.915,0.915 0 0 0 20,16 v -4 a 1,1 0 0 0 -2,0 v 4 a 0.915,0.915 0 0 0 0.035,0.173 3,3 0 1 0 1.93,0 z M 21,2 h -4 a 1,1 0 0 0 -1,1 v 1 h -4 a 1,1 0 0 0 0,2 h 4 v 1 a 1,1 0 0 0 1,1 h 4 A 1,1 0 0 0 22,7 V 3 A 1,1 0 0 0 21,2 Z M 12,18 H 8 V 17 A 1,1 0 0 0 7,16 H 3 a 1,1 0 0 0 -1,1 v 4 a 1,1 0 0 0 1,1 h 4 a 1,1 0 0 0 1,-1 v -1 h 4 a 1,1 0 0 0 0,-2 z"
       id="path1"
       style="fill:#ea9a3b;fill-opacity:1" /></g></svg>
