<?xml version="1.0" encoding="UTF-8" standalone="no"?>
<svg
   height="16"
   viewBox="0 0 16 16"
   width="16"
   version="1.1"
   id="svg1"
   sodipodi:docname="Gear.svg"
   inkscape:version="1.3 (0e150ed6c4, 2023-07-21)"
   xmlns:inkscape="http://www.inkscape.org/namespaces/inkscape"
   xmlns:sodipodi="http://sodipodi.sourceforge.net/DTD/sodipodi-0.dtd"
   xmlns="http://www.w3.org/2000/svg"
   xmlns:svg="http://www.w3.org/2000/svg">
  <defs
     id="defs1" />
  <sodipodi:namedview
     id="namedview1"
     pagecolor="#ffffff"
     bordercolor="#666666"
     borderopacity="1.0"
     inkscape:showpageshadow="2"
     inkscape:pageopacity="0.0"
     inkscape:pagecheckerboard="0"
     inkscape:deskcolor="#d1d1d1"
     inkscape:zoom="36.283417"
     inkscape:cx="4.4924104"
     inkscape:cy="9.2190877"
     inkscape:window-width="1920"
     inkscape:window-height="1017"
     inkscape:window-x="-8"
     inkscape:window-y="-8"
     inkscape:window-maximized="1"
     inkscape:current-layer="svg1"
     showgrid="false" />
  <path
     d="m 14.654251,4.157109 0.608614,1.3335671 a 0.5975507,0.5975507 0 0 1 -0.198419,0.712706 l -1.008417,0.6884914 a 0.47132196,0.47132196 0 0 1 -0.103073,0.053705 6.0080822,6.0080822 0 0 1 0.05867,1.6830205 0.46317813,0.46317813 0 0 1 0.107731,0.044832 l 1.05413,0.6155205 a 0.59653272,0.59653272 0 0 1 0.248996,0.697618 l -0.51351,1.3757035 a 0.59653272,0.59653272 0 0 1 -0.644717,0.362468 l -1.199161,-0.22475 a 0.45198042,0.45198042 0 0 1 -0.111675,-0.0363 6.0141898,6.0141898 0 0 1 -1.16065,1.242489 0.51102292,0.51102292 0 0 1 0.07397,0.162066 l 0.276499,1.052097 a 0.67898861,0.67898861 0 0 1 -0.361362,0.760216 L 10.568695,15.23423 A 0.67898861,0.67898861 0 0 1 9.757626,15.009083 L 9.1440262,14.110837 a 0.5038971,0.5038971 0 0 1 -0.073966,-0.162063 6.0141898,6.0141898 0 0 1 -1.6991067,0.06264 0.45198042,0.45198042 0 0 1 -0.046177,0.107224 L 6.709273,15.172757 A 0.59653272,0.59653272 0 0 1 6.0116584,15.421768 L 4.6359554,14.908265 A 0.59653272,0.59653272 0 0 1 4.2738911,14.26448 l 0.2257313,-1.199617 a 0.46216015,0.46216015 0 0 1 0.035379,-0.111264 6.0070641,6.0070641 0 0 1 -1.2320196,-1.147526 0.47437586,0.47437586 0 0 1 -0.1080947,0.04267 l -1.180874,0.310602 A 0.59653272,0.59653272 0 0 1 1.3456123,11.842234 L 0.7369987,10.508666 A 0.59653272,0.59653272 0 0 1 0.93541432,9.7959645 L 1.9438304,9.1074709 A 0.44485459,0.44485459 0 0 1 2.0473025,9.0546865 6.0182616,6.0182616 0 0 1 1.9877102,7.3720903 0.47437586,0.47437586 0 0 1 1.8804777,7.3259137 L 0.82635752,6.7103966 A 0.5975507,0.5975507 0 0 1 0.57684824,6.0141287 L 1.0903558,4.6384179 A 0.5975507,0.5975507 0 0 1 1.7355675,4.2745808 L 2.935184,4.5003117 A 0.45198042,0.45198042 0 0 1 3.0468685,4.5366247 6.0091002,6.0091002 0 0 1 4.1939704,3.303678 0.44078271,0.44078271 0 0 1 4.1503816,3.1960084 L 3.8397668,2.015133 A 0.59653272,0.59653272 0 0 1 4.1568709,1.3467384 l 1.335421,-0.6094596 a 0.59653272,0.59653272 0 0 1 0.7127007,0.198417 l 0.6884948,1.008415 A 0.45605231,0.45605231 0 0 1 6.9462514,2.047595 6.0141898,6.0141898 0 0 1 8.6292697,1.988929 0.45198042,0.45198042 0 0 1 8.6750327,1.8807589 L 9.2905724,0.82663035 A 0.59653272,0.59653272 0 0 1 9.987264,0.57804854 l 1.375712,0.51350906 a 0.59653272,0.59653272 0 0 1 0.363419,0.6442815 l -0.225731,1.1996177 a 0.47539384,0.47539384 0 0 1 -0.0363,0.1116766 6.0080822,6.0080822 0 0 1 1.232947,1.1471031 0.4418007,0.4418007 0 0 1 0.107676,-0.043577 L 13.98584,3.8400139 a 0.5975507,0.5975507 0 0 1 0.668401,0.3171056 z m -4.28446,2.7610082 A 2.6049951,2.6049951 0 1 0 9.0809865,10.370881 2.6049951,2.6049951 0 0 0 10.369791,6.9181172 Z"
     id="path2"
     style="fill:#ea9a3b;fill-opacity:1;stroke-width:1.01797" />
</svg>
