<?xml version="1.0" encoding="UTF-8" standalone="no"?>
<svg
   height="16"
   viewBox="0 0 16 16"
   width="16"
   version="1.1"
   id="svg1"
   sodipodi:docname="Help.svg"
   xml:space="preserve"
   inkscape:version="1.3 (0e150ed6c4, 2023-07-21)"
   xmlns:inkscape="http://www.inkscape.org/namespaces/inkscape"
   xmlns:sodipodi="http://sodipodi.sourceforge.net/DTD/sodipodi-0.dtd"
   xmlns="http://www.w3.org/2000/svg"
   xmlns:svg="http://www.w3.org/2000/svg"><defs
     id="defs1" /><sodipodi:namedview
     id="namedview1"
     pagecolor="#505050"
     bordercolor="#eeeeee"
     borderopacity="1"
     inkscape:showpageshadow="0"
     inkscape:pageopacity="0"
     inkscape:pagecheckerboard="0"
     inkscape:deskcolor="#505050"
     inkscape:zoom="18.141708"
     inkscape:cx="8.7367737"
     inkscape:cy="14.745028"
     inkscape:window-width="1920"
     inkscape:window-height="1017"
     inkscape:window-x="-8"
     inkscape:window-y="-8"
     inkscape:window-maximized="1"
     inkscape:current-layer="g1" /><g
     style="fill:none"
     id="g1"
     transform="matrix(7.9888977,0,0,7.9888977,-95.54716,-141.6166)"><path
       d="m 13.447721,18.29124 q 0,0.112804 -0.04029,0.201436 -0.04029,0.08748 -0.105897,0.155394 -0.06446,0.06561 -0.148488,0.123163 -0.08403,0.05755 -0.178414,0.111654 v 0.258989 H 12.76859 v -0.351075 q 0.07482,-0.04259 0.161149,-0.09323 0.08748,-0.05065 0.142731,-0.10245 0.06676,-0.05986 0.103593,-0.123164 0.03683,-0.06446 0.03683,-0.163451 0,-0.13007 -0.08864,-0.193378 -0.08748,-0.06446 -0.226758,-0.06446 -0.124315,0 -0.235969,0.03913 -0.110502,0.03913 -0.174961,0.07942 h -0.01152 v -0.234817 q 0.08057,-0.03108 0.203738,-0.05525 0.124315,-0.02532 0.234817,-0.02532 0.247478,0 0.39021,0.120862 0.143883,0.119711 0.143883,0.316542 z m -0.45467,1.311061 h -0.234817 v -0.242874 h 0.234817 z"
       id="text1"
       style="font-size:2.22714px;line-height:1.25;-inkscape-font-specification:'sans-serif, Normal';letter-spacing:0px;word-spacing:0px;fill:#e0e0e0;stroke-width:0.17674528;stroke-dasharray:none;fill-opacity:1"
       aria-label="?" /></g></svg>
