<?xml version="1.0" encoding="UTF-8" standalone="no"?>
<svg
   height="16"
   viewBox="0 0 16 16"
   width="16"
   version="1.1"
   id="svg1"
   sodipodi:docname="Logo.svg"
   inkscape:version="1.3 (0e150ed6c4, 2023-07-21)"
   xml:space="preserve"
   inkscape:export-filename="Logo.png"
   inkscape:export-xdpi="3000"
   inkscape:export-ydpi="3000"
   xmlns:inkscape="http://www.inkscape.org/namespaces/inkscape"
   xmlns:sodipodi="http://sodipodi.sourceforge.net/DTD/sodipodi-0.dtd"
   xmlns="http://www.w3.org/2000/svg"
   xmlns:svg="http://www.w3.org/2000/svg"><defs
     id="defs1" /><sodipodi:namedview
     id="namedview1"
     pagecolor="#ffffff"
     bordercolor="#666666"
     borderopacity="1.0"
     inkscape:showpageshadow="2"
     inkscape:pageopacity="0.0"
     inkscape:pagecheckerboard="0"
     inkscape:deskcolor="#d1d1d1"
     inkscape:zoom="36.283417"
     inkscape:cx="5.5535012"
     inkscape:cy="14.262714"
     inkscape:window-width="1920"
     inkscape:window-height="1017"
     inkscape:window-x="-8"
     inkscape:window-y="-8"
     inkscape:window-maximized="1"
     inkscape:current-layer="svg1"
     showgrid="false" /><circle
     cx="12.842875"
     cy="3.1975412"
     r="1.8425362"
     fill="none"
     stroke-width="0.737014"
     stroke="#8da5f3"
     id="circle1"
     style="display:none;stroke:#ea9a3b;stroke-opacity:1" /><circle
     cx="12.842875"
     cy="3.1975412"
     r="0.56779748"
     fill="none"
     stroke-width="0.227119"
     stroke="#8da5f3"
     id="circle2"
     style="display:none;fill:#ea9a3b;fill-opacity:1;stroke:#ea9a3b;stroke-opacity:1" /><g
     id="g6"
     transform="matrix(2.0513353,0,0,2.0513353,2.0485592,-3.8992187)"><path
       sodipodi:type="star"
       style="display:none;fill:#ea9a3b;fill-opacity:1;stroke:#8da5f3;stroke-width:0;stroke-linecap:round;stroke-dasharray:none;paint-order:stroke markers fill"
       id="path24"
       inkscape:flatsided="false"
       sodipodi:sides="5"
       sodipodi:cx="5.2089911"
       sodipodi:cy="5.3743558"
       sodipodi:r1="5.1831894"
       sodipodi:r2="2.5915947"
       sodipodi:arg1="0.99754192"
       sodipodi:arg2="1.6258604"
       inkscape:rounded="0"
       inkscape:randomized="0"
       d="M 8.0201927,9.7289623 5.0663594,7.9620226 1.9362233,9.3936148 2.7038981,6.038338 0.37510768,3.503788 3.8033901,3.1970526 5.4942546,0.19902228 6.8453748,3.3647262 10.219177,4.0463916 7.6259328,6.3096396 Z"
       inkscape:transform-center-x="-0.088151286"
       inkscape:transform-center-y="-0.41036351" /><path
       sodipodi:type="star"
       style="display:none;fill:#ea9a3b;fill-opacity:1;stroke:#8da5f3;stroke-width:0;stroke-linecap:round;stroke-dasharray:none;paint-order:stroke markers fill"
       id="path25"
       inkscape:flatsided="false"
       sodipodi:sides="5"
       sodipodi:cx="12.016509"
       sodipodi:cy="8.26824"
       sodipodi:r1="4.0289702"
       sodipodi:r2="2.0144851"
       sodipodi:arg1="0.99986986"
       sodipodi:arg2="1.6281884"
       inkscape:rounded="0"
       inkscape:randomized="0"
       d="M 14.193812,11.658218 11.900957,10.279408 9.4652718,11.386539 10.068067,8.7798287 8.2624546,6.8054766 10.927858,6.5732508 l 1.319755,-2.3273475 1.044515,2.4631871 2.621266,0.5359722 -2.019858,1.7545591 z"
       inkscape:transform-center-x="-0.071415069"
       inkscape:transform-center-y="-0.31617922" /><path
       sodipodi:type="star"
       style="display:none;fill:#ea9a3b;fill-opacity:1;stroke:#8da5f3;stroke-width:0;stroke-linecap:round;stroke-dasharray:none;paint-order:stroke markers fill"
       id="path26"
       inkscape:flatsided="false"
       sodipodi:sides="5"
       sodipodi:cx="5.5672817"
       sodipodi:cy="12.981137"
       sodipodi:r1="2.9828122"
       sodipodi:r2="1.491406"
       sodipodi:arg1="0.94947273"
       sodipodi:arg2="1.5777913"
       inkscape:rounded="0"
       inkscape:randomized="0"
       d="M 7.3036122,15.406488 5.5568495,14.472507 3.797192,15.38196 4.1456813,13.432074 2.7369756,12.039577 4.6991166,11.768462 5.5881461,9.9983981 6.4523266,11.780726 8.4104827,12.079263 6.9824346,13.451917 Z"
       inkscape:transform-center-x="-0.0064474527"
       inkscape:transform-center-y="-0.27869435" /><g
       style="fill:#ea9a3b;fill-opacity:1"
       id="g1"
       transform="matrix(0.72678021,0,0,0.70931261,-0.7213514,-0.51175501)"><path
         d="m 0.33142523,5.6422943 a 1.3959111,1.3959111 0 1 1 1.84492917,1.3154135 0.42575289,0.42575289 0 0 1 0.016286,0.080498 v 2.3265185 a 0.4653037,0.4653037 0 0 1 -0.9306074,0 V 7.0382054 A 0.42575289,0.42575289 0 0 1 1.2783183,6.9577078 1.3907928,1.3907928 0 0 1 0.33142523,5.6422943 Z M 8.6906066,10.841133 a 0.42575289,0.42575289 0 0 0 0.01628,-0.0805 V 8.8994202 a 0.4653037,0.4653037 0 0 0 -0.9306071,0 v 1.8612148 a 0.42575289,0.42575289 0 0 0 0.016286,0.0805 1.3959111,1.3959111 0 1 0 0.8980361,0 z M 9.1721956,4.2463832 H 7.3109808 A 0.4653037,0.4653037 0 0 0 6.8456771,4.7116869 V 5.1769906 H 4.9844623 a 0.4653037,0.4653037 0 0 0 0,0.9306074 H 6.8456771 V 6.5729017 A 0.4653037,0.4653037 0 0 0 7.3109808,7.0382054 H 9.1721956 A 0.4653037,0.4653037 0 0 0 9.6374996,6.5729017 V 4.7116869 A 0.4653037,0.4653037 0 0 0 9.1721956,4.2463832 Z M 4.9844623,11.691242 H 3.1232475 V 11.225939 A 0.4653037,0.4653037 0 0 0 2.6579438,10.760635 H 0.79672893 a 0.4653037,0.4653037 0 0 0 -0.4653037,0.465304 v 1.861214 a 0.4653037,0.4653037 0 0 0 0.4653037,0.465304 H 2.6579438 a 0.4653037,0.4653037 0 0 0 0.4653037,-0.465304 v -0.465304 h 1.8612148 a 0.4653037,0.4653037 0 0 0 0,-0.930607 z"
         id="path1"
         style="fill:#ea9a3b;fill-opacity:1;stroke-width:0.465304" /></g></g><path
     d="m 8.2770993,8.8312986 h 2.2167957 a 0.27709953,0.27709953 0 0 0 0.2771,-0.2770995 V 7.4458012 a 0.27709953,0.27709953 0 0 0 -0.2771,-0.2770999 H 8.2770993 A 0.27709953,0.27709953 0 0 0 7.9999998,7.4458012 V 7.7229005 H 6.8916017 V 6.6145025 H 7.7229004 A 0.27709953,0.27709953 0 0 0 7.9999998,6.3374028 V 5.2290047 A 0.27709953,0.27709953 0 0 0 7.7229004,4.9519053 H 5.506104 A 0.27709953,0.27709953 0 0 0 5.2290046,5.2290047 V 6.3374028 A 0.27709953,0.27709953 0 0 0 5.506104,6.6145025 h 0.8312986 v 3.6022935 a 0.27709953,0.27709953 0 0 0 0.2770994,0.2771 h 1.3854978 v 0.2771 a 0.27709953,0.27709953 0 0 0 0.2770995,0.277099 h 2.2167957 a 0.27709953,0.27709953 0 0 0 0.2771,-0.277099 V 9.6625972 a 0.27709953,0.27709953 0 0 0 -0.2771,-0.2770995 H 8.2770993 A 0.27709953,0.27709953 0 0 0 7.9999998,9.6625972 V 9.9396965 H 6.8916017 V 8.2770997 h 1.1083981 v 0.2770994 a 0.27709953,0.27709953 0 0 0 0.2770995,0.2770995 z"
     id="path1-2"
     style="fill:#ea9a3b;fill-opacity:1;stroke:none;stroke-width:0.0906389;stroke-dasharray:none;stroke-opacity:1" /></svg>
